<svg id="Layer_1" data-name="Layer 1" xmlns="http://www.w3.org/2000/svg" viewBox="0 0 1013.47 548.09"><defs><style>.cls-1{fill:#3f6eb9;}</style></defs><path class="cls-1" d="M290.9,280.19c-.14,12.32-16.41,26.34-28.31,27.1-5.59.36-7.43-2.88-11.27-7.67-6.72-8.4-9.84-10.32-15.35-10.32-1.68,0-4.75,2.61-4.56,5.28.85,11.92,22.22,17.74,31.66,23.33,21,12.41,33.37,30.74,34.55,55.6,1.78,37.78-31.49,59.25-65.55,50.58-24.74-6.29-62.94-32.46-62.31-59,.27-11.43,20.39-26.2,28.23-25,9,1.44,11,27.73,26.73,29.79,7,.92,11.19-5.75,10.83-9.63-1-10.25-19.62-16.8-28.53-22.82-15.17-10.25-28.88-23.32-28.62-42.89.38-29.75,27.52-51.57,56.61-51.1C256.24,243.83,291.17,256.21,290.9,280.19Z" transform="translate(-5.41 -91.49)"/><path class="cls-1" d="M431.46,279.23c.32,11.39-8.42,20-18.71,23.26-11.26,3.58-19.12,3.77-18.95,15.36.3,21.28-2.65,43.21-3.5,64.6-.42,10.66,1.65,22.75-.5,32.39-2.32,10.43-16.3,20.61-27,20.53-11-.08-20.17-10.85-20.78-21.92-1.56-28.26,2.64-59,2.15-87.93-.19-11.79-1.76-19.51-6.47-19.43-10.78.21-21.51,5.37-31.67,6-5.16.32-9.55-4.36-9.59-13.91-.06-13.1,1.54-47,21.35-47,13.65,0,28.05,2,41.5,1.92,19.84-.09,43.58-11.73,58.29-9.6C426.69,244.81,431.18,269.1,431.46,279.23Z" transform="translate(-5.41 -91.49)"/><path class="cls-1" d="M585.94,325.52c.21,52.23-36,97.71-88.62,103.88-61.06,7.15-77.26-41.78-69.1-93.55,7-44.68,26.41-91.88,80.24-91.89C554.26,244,585.76,281.22,585.94,325.52Zm-96.58,7.72c-.78,11.13-1.68,47,14.72,46.17,16.95-.88,23-37.45,22.85-50.53-.16-12.59-4.43-40.77-18.47-40.78C494.1,288.1,490.25,320.68,489.36,333.24Z" transform="translate(-5.41 -91.49)"/><path class="cls-1" d="M746.65,325.52c1.28,44.91-28.71,69.09-73,73.64-45.94,4.72-84.36-13-83.69-63.91.6-46.08,29-91.28,79.23-91.29C715,244,745.43,282.32,746.65,325.52Zm-96.06,7.21c.51,12.83,7.94,32.34,21.92,31.77,15.43-.63,15.75-23.26,15.13-35.62-.66-13.07-4.43-40.77-18.47-40.78C655.31,288.1,650.1,320.38,650.59,332.73Z" transform="translate(-5.41 -91.49)"/><path class="cls-1" d="M893.45,310.65c.38,33.2-34.86,49-63.48,49.05-9.47,0-13.46-2.2-15.52-2.19s-2.16.83-2.55,3.11c-1.68,9.78,2.28,15.16,1.46,20.85-.8,5.51-7.24,10.34-17,10.24-11.75-.13-24-6.14-29.92-16.14-9-15.16-13.28-33.87-14.09-51-.85-18-3-49.51,7.2-62.37,9.77-12.38,38.28-14.85,55.89-15.36C852.72,245.78,893,268.73,893.45,310.65ZM816,294.1c-2.17,1.26-2.88,12.71-2.88,17s0,8.16,7.2,8.16c7,0,14.63-7.2,14.63-14.16,0-6.71-6-12.95-12.47-12.95A11.75,11.75,0,0,0,816,294.1Z" transform="translate(-5.41 -91.49)"/><path class="cls-1" d="M366,466.58c.48,9.33-15.47,17.48-24.71,18-5.48.3-7-2.06-10.37-5.44-5.95-5.9-8.93-7.27-14.54-7.42-1.71-.05-5.17,1.93-5,3.63.68,8.76,21.38,13.15,29.58,17.4,17.78,9.19,30.38,26.26,30.41,46.61,0,31-31.56,48.52-59.25,48.93-24.64.38-64.65-17.14-65.73-44.13-.52-13.1,19.46-32.68,28.79-31.19s12.69,26.65,28.06,27.11c6.75.2,10.4-6.23,9.84-9.6-1.56-9.44-20-14.8-29-20.29-13.73-8.36-28.83-19.42-29-37.05-.29-30.52,41.45-38.87,64.56-36.44C337.53,438.59,365,448.31,366,466.58Z" transform="translate(-5.41 -91.49)"/><path class="cls-1" d="M513.18,471.2c1.57,15.79-19.74,28.74-34.42,28.65-4.8,0-8.65-2.37-9.2-5-2.67-12.6-8.58-17.72-17.67-17.75-15.7,0-15.13,18.49-14.38,28.92.95,13.15,7.28,35.08,24.71,35.27,14.87.16,25.07-16.9,35.26-17.27,9.59-.35,28.53,17.75,27.82,28.78-1.41,22-46.65,36.64-67.88,36.46-47.38-.39-84.46-33.09-83.24-80.6,1-40.43,23-67.29,65.79-69C462.79,438.69,510.2,441.35,513.18,471.2Z" transform="translate(-5.41 -91.49)"/><path class="cls-1" d="M678,498.46c-2.12,46.75-28.18,90.07-79.78,90.07-45.9,0-76.92-35.11-77.24-79.88-.31-44,33.1-87.27,77.78-96.51C655.3,400.44,680.2,449.78,678,498.46Zm-96.57,7.79c-.45,12.18,5.57,39.56,18.71,39.59,14.75,0,18.14-31.52,18.47-43.69.3-11.55-4.85-45-19.14-43.19S581.92,492.81,581.43,506.25Z" transform="translate(-5.41 -91.49)"/><path class="cls-1" d="M837.85,498.28c4.84,45.54-30.56,90.25-78.92,90.25-45.9,0-77.94-35.21-77.24-79.88.71-45.17,34.17-111.38,86.49-113.8C813.38,392.76,834.5,466.76,837.85,498.28Zm-95.71,8c-.59,12,5.58,39.56,18.71,39.59,14.75,0,18.14-31.49,18.48-43.67.33-11.7-4-51.38-14.93-51.31C752.44,450.94,742.83,492.16,742.14,506.25Z" transform="translate(-5.41 -91.49)"/><path class="cls-1" d="M985.33,485.61c-.61,30.54-29.45,57.2-59,57.59-9.47.12-14.15-3.36-16.31-3.36s-2.13,1.22-2.16,4.8c-.07,10.65,4.62,20.43,5,30.46.29,6.89-5.81,12.53-18.23,12.48-14.51-.07-36.4-4.71-42-20.16-8-22.12-7.48-47.24-9.23-70.29-1.81-23.63-10.54-61.15.31-79.82,9-15.44,44.48-14.65,61.25-12.34C940.27,409.83,986.14,444.91,985.33,485.61ZM906.72,461c-2.27,1.31-2.73,14.94-2.6,20.07s.27,9.67,7.59,9.75c7.08.08,14.89-8,14.95-15.8.07-7.54-6.18-15.15-13.08-15.74A10.57,10.57,0,0,0,906.72,461Z" transform="translate(-5.41 -91.49)"/><path class="cls-1" d="M958.29,225.82c.62,3.87,1.15,15.4,1.15,21.56,0,17.07-2,27.72-4.84,30-3.61,3-9.33,4.22-14.17,4.22-3.17,0-4.93-3.52-7.13-8.09s-9-24.2-11.44-24.2c-.79,0-1.05,1.49-1.05,4,0,12.32,5,20.77,5,23.85,0,2.64-5.8,5.81-12.49,5.81s-9.86-1.58-10.83-5.81A114.64,114.64,0,0,1,900.57,256c0-15,.88-24.55,1.41-27.8s1.93-4.93,3.52-5.46c1.76-.62,7.83-1.32,11.79-1.32s8.89,1.41,12.23,7.57c2.2,4,9.77,22,11.09,22,.79,0,.88-1.06.88-2.38,0-9.15-6.51-20-6.51-24.11,0-2.2,5.72-4.75,11.44-4.75C952.93,219.75,957.59,221.86,958.29,225.82Z" transform="translate(-5.41 -91.49)"/><path class="cls-1" d="M975.58,218.64c0,8.74-6.32,17.37-9.4,17.37-1.76,0-3.35-1.32-3.35-2.69s3.13-4.57,3.13-6.38-6.76-3.19-6.76-9.62c0-5.72,4.18-8.42,8.08-8.42C972.23,208.9,975.58,212.48,975.58,218.64Z" transform="translate(-5.41 -91.49)"/><path class="cls-1" d="M80,186.2c34-28.82-8.06-94.71,28.21-94.71,28.22,0-4.42,65.11,30.23,94.71,28.88,24.67,77.59,7.93,76.57,20.15-2,24.18-43.88,1.69-72.54,30.22-20.83,20.75,4.13,67.41-30.23,70.53-22.16,2-3.66-61.91-26.19-84.63-27.35-27.59-78.59,6-80.6-20.15C4.05,184.24,52.41,209.57,80,186.2Z" transform="translate(-5.41 -91.49)"/><path class="cls-1" d="M215.3,516.66c-11.9,10.09,2.82,33.15-9.87,33.15-9.87,0,1.55-22.79-10.58-33.15-10.11-8.63-27.15-2.77-26.8-7,.71-8.46,15.36-.59,25.39-10.58,7.29-7.26-1.44-23.59,10.58-24.68,7.76-.71,1.28,21.67,9.17,29.62,9.57,9.65,27.5-2.12,28.21,7C241.88,517.35,225,508.48,215.3,516.66Z" transform="translate(-5.41 -91.49)"/><path class="cls-1" d="M106.48,596.61c-9.39,0,4.47-26-8.35-39.65-11.79-12.54-34.43,3.17-34.43-11.47,0-10.44,20.07,2.93,32.34-7.31,13.9-11.59,5.22-37.56,13.57-36.51,12.59,1.57-1.62,22.39,10.43,33.38,10.5,9.58,28.17,1.05,28.17,8.35,0,9.45-17.8.93-29.21,11.48C104,568.76,115.87,596.61,106.48,596.61Z" transform="translate(-5.41 -91.49)"/><path class="cls-1" d="M866.22,234.55c-9.39,0,4.47-26-8.35-39.65-11.78-12.54-34.43,3.17-34.43-11.47,0-10.44,20.07,2.93,32.34-7.31,13.91-11.59,5.22-37.56,13.57-36.52,12.59,1.58-1.62,22.4,10.43,33.39,10.5,9.58,28.17,1,28.17,8.35,0,9.45-17.8.92-29.21,11.48C863.73,206.7,875.61,234.55,866.22,234.55Z" transform="translate(-5.41 -91.49)"/><path class="cls-1" d="M977.15,639.58c-9.39,0,4.47-26-8.35-39.65-11.78-12.54-34.43,3.17-34.43-11.47,0-10.44,20.07,2.93,32.34-7.31,13.91-11.59,5.22-37.56,13.57-36.51,12.59,1.57-1.62,22.39,10.43,33.38,10.5,9.58,28.17,1.05,28.17,8.35,0,9.45-17.8.93-29.21,11.48C974.66,611.73,986.54,639.58,977.15,639.58Z" transform="translate(-5.41 -91.49)"/><path class="cls-1" d="M193.45,440c0,12.3-23.38,1.32-36.17,15.7-14.66,16.48-2.73,45-10.24,45-6.14,0,5.88-29.14-8.87-45-5.67-6.12-24.85-2.68-23.89-12.29.69-6.82,17.83-1.61,23.21-4.77,12.13-7.14,2-32.76,10.92-32.76s-2.59,24.06,8.87,33.44C169.22,449,193.45,433.82,193.45,440Z" transform="translate(-5.41 -91.49)"/></svg>